<?xml version="1.0" standalone="no"?><!DOCTYPE svg PUBLIC "-//W3C//DTD SVG 1.1//EN" "http://www.w3.org/Graphics/SVG/1.1/DTD/svg11.dtd"><svg t="1563004494527" class="icon" viewBox="0 0 1024 1024" version="1.1" xmlns="http://www.w3.org/2000/svg" p-id="10248" xmlns:xlink="http://www.w3.org/1999/xlink" width="200" height="200"><defs><style type="text/css"></style></defs><path d="M722.870857 707.437714c0-101.156571-24.576-213.723429-126.281143-213.723428-31.414857 18.285714-74.276571 49.700571-121.161143 49.700571S385.718857 512 354.267429 493.714286c-101.705143 0-126.281143 112.566857-126.281143 213.723428C227.986286 764.013714 265.142857 804.571429 310.857143 804.571429h329.142857c45.714286 0 82.870857-40.557714 82.870857-97.133715z m-98.852571-339.419428c0-82.285714-66.852571-148.553143-148.553143-148.553143s-148.553143 66.304-148.553143 148.553143c0 81.700571 66.852571 148.004571 148.553143 148.004571s148.553143-66.304 148.553143-148.004571zM987.428571 676.571429v109.714285c0 10.276571-8.009143 18.285714-18.285714 18.285715H914.285714v128c0 50.285714-41.142857 91.428571-91.428571 91.428571h-694.857143A91.684571 91.684571 0 0 1 36.571429 932.571429v-841.142858C36.571429 41.142857 77.714286 0 128 0h694.857143C873.142857 0 914.285714 41.142857 914.285714 91.428571V219.428571h54.857143c10.276571 0 18.285714 8.009143 18.285714 18.285715v109.714285c0 10.276571-8.009143 18.285714-18.285714 18.285715H914.285714v73.142857h54.857143c10.276571 0 18.285714 8.009143 18.285714 18.285714v109.714286c0 10.276571-8.009143 18.285714-18.285714 18.285714H914.285714v73.142857h54.857143c10.276571 0 18.285714 8.009143 18.285714 18.285715z" fill="" p-id="10249"></path></svg>