<?xml version="1.0" standalone="no"?><!DOCTYPE svg PUBLIC "-//W3C//DTD SVG 1.1//EN" "http://www.w3.org/Graphics/SVG/1.1/DTD/svg11.dtd"><svg t="1563004446761" class="icon" viewBox="0 0 1170 1024" version="1.1" xmlns="http://www.w3.org/2000/svg" p-id="10115" xmlns:xlink="http://www.w3.org/1999/xlink" width="228.515625" height="200"><defs><style type="text/css"></style></defs><path d="M585.142857 646.290286c0-88.576-21.723429-186.843429-112.018286-186.843429-28.013714 16.018286-65.718857 43.446857-107.446857 43.446857s-79.433143-27.428571-107.446857-43.446857c-90.294857 0-112.018286 98.304-112.018286 186.843429 0 49.700571 32.585143 85.138286 73.142858 85.138285h292.571428c40.557714 0 73.142857-35.437714 73.142857-85.138285z m-89.709714-297.142857C495.433143 277.723429 437.138286 219.428571 365.714286 219.428571S235.995429 277.723429 235.995429 349.147429c0 72.009143 58.294857 129.718857 129.718857 129.718857s129.718857-57.709714 129.718857-129.718857zM1024 640v-36.571429c0-10.276571-8.009143-18.285714-18.285714-18.285714h-329.142857c-10.276571 0-18.285714 8.009143-18.285715 18.285714v36.571429c0 10.276571 8.009143 18.285714 18.285715 18.285714h329.142857c10.276571 0 18.285714-8.009143 18.285714-18.285714z m0-148.553143v-32a20.48 20.48 0 0 0-20.553143-20.553143h-324.571428a20.48 20.48 0 0 0-20.553143 20.553143v32c0 11.446857 9.142857 20.553143 20.553143 20.553143h324.571428a20.48 20.48 0 0 0 20.553143-20.553143zM1024 347.428571v-36.571428c0-10.276571-8.009143-18.285714-18.285714-18.285714h-329.142857c-10.276571 0-18.285714 8.009143-18.285715 18.285714v36.571428c0 10.276571 8.009143 18.285714 18.285715 18.285715h329.142857c10.276571 0 18.285714-8.009143 18.285714-18.285715z m146.285714-182.857142v694.857142c0 50.285714-41.142857 91.428571-91.428571 91.428572H877.714286v-54.857143c0-10.276571-8.009143-18.285714-18.285715-18.285714h-36.571428c-10.276571 0-18.285714 8.009143-18.285714 18.285714V950.857143H365.714286v-54.857143c0-10.276571-8.009143-18.285714-18.285715-18.285714h-36.571428c-10.276571 0-18.285714 8.009143-18.285714 18.285714V950.857143H91.428571A91.684571 91.684571 0 0 1 0 859.428571v-694.857142C0 114.285714 41.142857 73.142857 91.428571 73.142857h987.428572C1129.142857 73.142857 1170.285714 114.285714 1170.285714 164.571429z" fill="" p-id="10116"></path></svg>