<?xml version="1.0" standalone="no"?><!DOCTYPE svg PUBLIC "-//W3C//DTD SVG 1.1//EN" "http://www.w3.org/Graphics/SVG/1.1/DTD/svg11.dtd"><svg t="1563004505171" class="icon" viewBox="0 0 1024 1024" version="1.1" xmlns="http://www.w3.org/2000/svg" p-id="10381" xmlns:xlink="http://www.w3.org/1999/xlink" width="200" height="200"><defs><style type="text/css"></style></defs><path d="M1024 768v73.142857c0 20.004571-16.566857 36.571429-36.571429 36.571429H36.571429c-20.004571 0-36.571429-16.566857-36.571429-36.571429v-73.142857c0-20.004571 16.566857-36.571429 36.571429-36.571429h950.857142c20.004571 0 36.571429 16.566857 36.571429 36.571429z m-219.428571-219.428571v73.142857c0 20.004571-16.566857 36.571429-36.571429 36.571428H36.571429c-20.004571 0-36.571429-16.566857-36.571429-36.571428v-73.142857c0-20.004571 16.566857-36.571429 36.571429-36.571429h731.428571c20.004571 0 36.571429 16.566857 36.571429 36.571429z m146.285714-219.428572v73.142857c0 20.004571-16.566857 36.571429-36.571429 36.571429H36.571429c-20.004571 0-36.571429-16.566857-36.571429-36.571429V329.142857c0-20.004571 16.566857-36.571429 36.571429-36.571428h877.714285c20.004571 0 36.571429 16.566857 36.571429 36.571428z m-219.428572-219.428571v73.142857c0 20.004571-16.566857 36.571429-36.571428 36.571428H36.571429c-20.004571 0-36.571429-16.566857-36.571429-36.571428V109.714286c0-20.004571 16.566857-36.571429 36.571429-36.571429h658.285714c20.004571 0 36.571429 16.566857 36.571428 36.571429z" fill="" p-id="10382"></path></svg>