<?xml version="1.0" standalone="no"?><!DOCTYPE svg PUBLIC "-//W3C//DTD SVG 1.1//EN" "http://www.w3.org/Graphics/SVG/1.1/DTD/svg11.dtd"><svg t="1563004519538" class="icon" viewBox="0 0 1024 1024" version="1.1" xmlns="http://www.w3.org/2000/svg" p-id="10780" xmlns:xlink="http://www.w3.org/1999/xlink" width="200" height="200"><defs><style type="text/css"></style></defs><path d="M391.405714 276.004571a22.308571 22.308571 0 0 0 0-44.544c-11.995429 0-21.723429 10.276571-21.723428 22.272s9.728 22.272 21.723428 22.272z m241.152 0c11.995429 0 21.723429-10.276571 21.723429-22.272s-9.728-22.272-21.723429-22.272a22.308571 22.308571 0 0 0 0 44.544zM168.539429 381.147429a58.514286 58.514286 0 0 1 58.294857 58.294857v245.723428c0 32.585143-25.709714 58.843429-58.294857 58.843429S109.696 717.714286 109.696 685.165714v-245.723428c0-32 26.294857-58.294857 58.843429-58.294857z m605.732571 10.861714v380.562286c0 34.852571-28.013714 62.866286-62.281143 62.866285h-42.861714v129.718857c0 32.585143-26.294857 58.843429-58.843429 58.843429s-58.843429-26.294857-58.843428-58.843429v-129.718857H472.594286v129.718857c0 32.585143-26.294857 58.843429-58.843429 58.843429a58.660571 58.660571 0 0 1-58.294857-58.843429l-0.585143-129.718857H312.594286a62.683429 62.683429 0 0 1-62.866286-62.866285V392.009143h524.580571z m-132.571429-231.424c80.018286 41.142857 134.290286 119.990857 134.290286 210.870857H247.424c0-90.843429 54.272-169.728 134.838857-210.870857L341.705143 85.723429a8.338286 8.338286 0 0 1 2.852571-11.446858c3.986286-1.718857 9.142857-0.585143 11.446857 3.437715L397.147429 153.161143c34.852571-15.433143 73.728-23.990857 114.870857-23.990857s80.018286 8.557714 114.870857 23.990857l41.142857-75.446857c2.304-3.986286 7.424-5.156571 11.446857-3.437715a8.338286 8.338286 0 0 1 2.852572 11.446858zM914.267429 439.442286v245.723428c0 32.585143-26.294857 58.843429-58.843429 58.843429a58.660571 58.660571 0 0 1-58.294857-58.843429v-245.723428a58.148571 58.148571 0 0 1 58.294857-58.294857c32.585143 0 58.843429 25.709714 58.843429 58.294857z" fill="" p-id="10781"></path></svg>