<?xml version="1.0" standalone="no"?><!DOCTYPE svg PUBLIC "-//W3C//DTD SVG 1.1//EN" "http://www.w3.org/Graphics/SVG/1.1/DTD/svg11.dtd"><svg t="1563004525773" class="icon" viewBox="0 0 1024 1024" version="1.1" xmlns="http://www.w3.org/2000/svg" p-id="10913" xmlns:xlink="http://www.w3.org/1999/xlink" width="200" height="200"><defs><style type="text/css"></style></defs><path d="M905.728 694.272c-14.299429 45.129143-37.156571 93.147429-70.290286 142.848-49.152 74.861714-98.304 112.018286-146.870857 112.018286-19.419429 0-45.714286-6.290286-80.018286-18.285715-33.718857-12.580571-62.866286-18.285714-86.272-18.285714-22.857143 0-50.285714 6.290286-81.152 18.870857-31.414857 13.129143-56.576 19.419429-75.446857 19.419429-58.843429 0-115.419429-49.700571-171.995428-148.004572C138.24 704.548571 109.677714 609.133714 109.677714 515.437714c0-87.442286 21.723429-158.281143 64.585143-213.723428C217.124571 246.857143 270.848 219.428571 336.566857 219.428571c28.013714 0 61.147429 5.705143 101.156572 17.152 39.424 11.446857 65.718857 17.152 78.848 17.152 16.566857 0 43.995429-6.290286 81.700571-19.419428 37.705143-12.580571 70.838857-19.419429 98.852571-19.419429 45.714286 0 86.272 12.580571 121.709715 37.156572 20.004571 13.714286 40.009143 33.133714 59.428571 57.161143-29.696 25.161143-51.419429 47.433143-65.133714 67.437714a203.117714 203.117714 0 0 0-37.156572 118.272c0 46.848 13.129143 89.709714 39.424 127.414857s56.576 61.696 90.294858 72.009143zM690.870857 23.990857c0 23.442286-5.705143 49.700571-16.566857 77.714286-11.446857 28.562286-29.147429 54.857143-53.138286 78.848-20.553143 20.553143-41.142857 34.304-61.696 41.142857-13.129143 3.986286-32.585143 7.424-59.428571 9.728 1.133714-56.576 16.018286-105.728 44.580571-146.870857S621.202286 15.396571 687.469714 0c1.133714 5.156571 2.304 9.142857 2.852572 12.580571 0 3.986286 0.585143 7.424 0.585143 11.446858z" fill="" p-id="10914"></path></svg>