<?xml version="1.0" standalone="no"?><!DOCTYPE svg PUBLIC "-//W3C//DTD SVG 1.1//EN" "http://www.w3.org/Graphics/SVG/1.1/DTD/svg11.dtd"><svg t="1563005038858" class="icon" viewBox="0 0 1024 1024" version="1.1" xmlns="http://www.w3.org/2000/svg" p-id="14856" xmlns:xlink="http://www.w3.org/1999/xlink" width="200" height="200"><defs><style type="text/css"></style></defs><path d="M322.236144 725.261686c-17.379654-17.379654-8.319834-12.479752-50.239-23.699529-19.019621-5.099899-35.739289-14.899703-50.858988-26.63947L130.399962 897.39826c-8.779825 21.539571 7.619848 44.939106 30.859386 44.059123l105.377903-4.01992L339.115808 1013.995939c15.999682 16.879664 44.079123 11.619769 52.858948-9.919802l104.097928-255.234921c-21.679569 12.07976-45.73909 19.159619-70.618594 19.159619-38.999224 0-75.638495-15.179698-103.217946-42.739149zM893.584773 897.39826l-90.738194-222.475573c-15.119699 11.759766-31.839366 21.539571-50.858988 26.63947-42.139161 11.279776-32.899345 6.359873-50.239 23.699529-27.579451 27.559452-64.238721 42.739149-103.237945 42.739149-24.879505 0-48.939026-7.099859-70.618595-19.159619L631.989979 1004.076137c8.779825 21.539571 36.879266 26.799467 52.858948 9.919802l72.498558-76.558476 105.377902 4.01992c23.239537 0.879982 39.639211-22.539551 30.859386-44.059123zM653.989542 680.002586c30.559392-31.099381 34.059322-28.419434 77.578456-40.279198 27.779447-7.579849 49.499015-29.679409 56.938866-57.958846 14.959702-56.79887 11.079779-49.939006 51.898967-91.498179 20.339595-20.699588 28.279437-50.878987 20.839586-79.158425-14.939703-56.75887-14.959702-48.839028 0-105.657897 7.439852-28.279437-0.49999-58.458837-20.839586-79.158425-40.819188-41.559173-36.939265-34.719309-51.898967-91.498179-7.439852-28.279437-29.15942-50.378997-56.938866-57.958846-55.75889-15.219697-49.039024-11.239776-89.898211-52.818949-20.339595-20.699588-49.999005-28.799427-77.778452-21.219578-55.738891 15.199697-47.959046 15.219697-103.797934 0-27.779447-7.579849-57.438857 0.49999-77.778452 21.219578-40.819188 41.559173-34.099321 37.599252-89.878212 52.818949-27.779447 7.579849-49.499015 29.679409-56.938866 57.958846-14.939703 56.77887-11.079779 49.939006-51.898968 91.498179-20.339595 20.699588-28.299437 50.878987-20.839585 79.158425 14.939703 56.718871 14.959702 48.799029 0 105.637897-7.439852 28.279437 0.49999 58.458837 20.839585 79.178425 40.819188 41.559173 36.939265 34.699309 51.898968 91.498179 7.439852 28.279437 29.15942 50.378997 56.938866 57.958846C337.195847 651.923145 340.53578 650.003183 369.995194 680.002586c26.459473 26.939464 67.678653 31.759368 99.47802 11.639769a79.350421 79.350421 0 0 1 85.058307 0c31.779368 20.1196 72.998547 15.299696 99.458021-11.639769zM323.316123 351.929116c0-106.057889 84.478319-192.036178 188.676245-192.036178s188.676245 85.978289 188.676245 192.036178-84.478319 192.036178-188.676245 192.036178-188.676245-85.978289-188.676245-192.036178z" fill="" p-id="14857"></path></svg>