<?xml version="1.0" standalone="no"?><!DOCTYPE svg PUBLIC "-//W3C//DTD SVG 1.1//EN" "http://www.w3.org/Graphics/SVG/1.1/DTD/svg11.dtd"><svg t="1563004548992" class="icon" viewBox="0 0 1024 1024" version="1.1" xmlns="http://www.w3.org/2000/svg" p-id="11312" xmlns:xlink="http://www.w3.org/1999/xlink" width="200" height="200"><defs><style type="text/css"></style></defs><path d="M521.142857 969.142857a8.996571 8.996571 0 0 0-9.142857-9.142857A82.688 82.688 0 0 1 429.714286 877.714286c0-5.156571-3.986286-9.142857-9.142857-9.142857s-9.142857 3.986286-9.142858 9.142857A100.717714 100.717714 0 0 0 512 978.285714c5.156571 0 9.142857-3.986286 9.142857-9.142857zM987.428571 804.571429c0 40.009143-33.133714 73.142857-73.142857 73.142857h-256c0 80.566857-65.718857 146.285714-146.285714 146.285714s-146.285714-65.718857-146.285714-146.285714H109.714286c-40.009143 0-73.142857-33.133714-73.142857-73.142857 84.553143-71.424 182.857143-199.424 182.857142-475.428572 0-109.714286 90.843429-229.705143 242.285715-252.013714A57.563429 57.563429 0 0 1 457.142857 54.857143a54.857143 54.857143 0 0 1 109.714286 0c0 8.009143-1.718857 15.433143-4.571429 22.272C713.728 99.401143 804.571429 219.428571 804.571429 329.142857c0 276.004571 98.304 404.004571 182.857142 475.428572z" fill="" p-id="11313"></path></svg>