<?xml version="1.0" standalone="no"?><!DOCTYPE svg PUBLIC "-//W3C//DTD SVG 1.1//EN" "http://www.w3.org/Graphics/SVG/1.1/DTD/svg11.dtd"><svg t="1563004560295" class="icon" viewBox="0 0 1024 1024" version="1.1" xmlns="http://www.w3.org/2000/svg" p-id="11445" xmlns:xlink="http://www.w3.org/1999/xlink" width="200" height="200"><defs><style type="text/css"></style></defs><path d="M969.142857 548.571429c0 20.004571-16.566857 36.571429-36.571428 36.571428H804.571429c0 71.424-15.433143 125.147429-38.290286 165.705143l118.857143 119.442286a36.205714 36.205714 0 0 1 0 51.419428c-6.838857 7.424-16.566857 10.861714-25.709715 10.861715s-18.870857-3.437714-25.709714-10.861715l-113.152-112.566857S645.705143 877.714286 548.571429 877.714286V365.714286h-73.142858v512c-103.424 0-178.870857-75.446857-178.870857-75.446857L192 920.539429a37.558857 37.558857 0 0 1-52.004571 2.852571c-14.848-13.714286-16.018286-36.571429-2.852572-52.004571l115.419429-129.718858C232.557714 702.244571 219.428571 651.373714 219.428571 585.106286H91.428571c-20.004571 0-36.571429-16.566857-36.571428-36.571429s16.566857-36.571429 36.571428-36.571428H219.428571V343.954286L120.576 245.101714c-14.299429-14.299429-14.299429-37.156571 0-51.419428s37.156571-14.299429 51.419429 0l98.852571 98.852571h482.304l98.852571-98.852571c14.299429-14.299429 37.156571-14.299429 51.419429 0s14.299429 37.156571 0 51.419428L804.571429 343.954286v168.009143h128c20.004571 0 36.571429 16.566857 36.571428 36.571428zM694.857143 219.428571H329.142857c0-101.156571 81.700571-182.857143 182.857143-182.857142s182.857143 81.700571 182.857143 182.857142z" fill="" p-id="11446"></path></svg>