<?xml version="1.0" standalone="no"?><!DOCTYPE svg PUBLIC "-//W3C//DTD SVG 1.1//EN" "http://www.w3.org/Graphics/SVG/1.1/DTD/svg11.dtd"><svg t="1563004576327" class="icon" viewBox="0 0 1096 1024" version="1.1" xmlns="http://www.w3.org/2000/svg" p-id="11578" xmlns:xlink="http://www.w3.org/1999/xlink" width="214.0625" height="200"><defs><style type="text/css"></style></defs><path d="M510.153787 0.007312A508.215985 508.215985 0 0 1 767.808322 68.561627a513.334707 513.334707 0 0 1 201.092656 212.500094l-423.903318-22.266442c-119.96091-6.83715-234.218101 60.547171-273.632262 173.67093L113.708756 190.240965C211.988222 67.97663 359.370857 0.592309 510.190349 0.007312zM83.398609 231.373554l192.537077 378.748876c54.258455 106.835044 169.100642 171.952502 287.928121 149.686061l-131.40491 257.654535C187.381793 979.767294 0 767.815635 0 511.879527c0-103.398187 30.858582-199.959224 83.398609-280.505973z m906.050382 96.561037c89.687324 230.781244 0 499.294783-221.640669 627.262836a510.482847 510.482847 0 0 1-284.491264 67.969318l231.366241-355.897438c65.702455-101.131325 64.569024-233.084669-13.710863-324.490422zM511.872215 339.342029c95.391043 0 172.537499 77.109893 172.537498 172.537498S607.299821 684.417026 511.872215 684.417026 339.334716 607.307133 339.334716 511.879527 416.444609 339.342029 511.872215 339.342029z" fill="" p-id="11579"></path></svg>