<?xml version="1.0" standalone="no"?><!DOCTYPE svg PUBLIC "-//W3C//DTD SVG 1.1//EN" "http://www.w3.org/Graphics/SVG/1.1/DTD/svg11.dtd"><svg t="1563005064086" class="icon" viewBox="0 0 1024 1024" version="1.1" xmlns="http://www.w3.org/2000/svg" p-id="15122" xmlns:xlink="http://www.w3.org/1999/xlink" width="200" height="200"><defs><style type="text/css"></style></defs><path d="M800 128h-160c0-70.6-57.4-128-128-128s-128 57.4-128 128H224C171 128 128 171 128 224v704c0 53 43 96 96 96h576c53 0 96-43 96-96V224c0-53-43-96-96-96zM320 848c-26.6 0-48-21.4-48-48s21.4-48 48-48 48 21.4 48 48-21.4 48-48 48z m0-192c-26.6 0-48-21.4-48-48s21.4-48 48-48 48 21.4 48 48-21.4 48-48 48z m0-192c-26.6 0-48-21.4-48-48s21.4-48 48-48 48 21.4 48 48-21.4 48-48 48z m192-384c26.6 0 48 21.4 48 48s-21.4 48-48 48-48-21.4-48-48 21.4-48 48-48z m256 736c0 8.8-7.2 16-16 16H464c-8.8 0-16-7.2-16-16v-32c0-8.8 7.2-16 16-16h288c8.8 0 16 7.2 16 16v32z m0-192c0 8.8-7.2 16-16 16H464c-8.8 0-16-7.2-16-16v-32c0-8.8 7.2-16 16-16h288c8.8 0 16 7.2 16 16v32z m0-192c0 8.8-7.2 16-16 16H464c-8.8 0-16-7.2-16-16v-32c0-8.8 7.2-16 16-16h288c8.8 0 16 7.2 16 16v32z" fill="" p-id="15123"></path></svg>