<?xml version="1.0" standalone="no"?><!DOCTYPE svg PUBLIC "-//W3C//DTD SVG 1.1//EN" "http://www.w3.org/Graphics/SVG/1.1/DTD/svg11.dtd"><svg t="1563004587358" class="icon" viewBox="0 0 1024 1024" version="1.1" xmlns="http://www.w3.org/2000/svg" p-id="11711" xmlns:xlink="http://www.w3.org/1999/xlink" width="200" height="200"><defs><style type="text/css"></style></defs><path d="M658.286446 512c0-80.566857-65.718857-146.285714-146.285715-146.285714s-146.285714 65.718857-146.285714 146.285714 65.718857 146.285714 146.285714 146.285714 146.285714-65.718857 146.285715-146.285714z m292.571428-62.281143v126.866286c0 8.557714-6.838857 18.870857-16.018285 20.553143l-105.728 16.018285a324.022857 324.022857 0 0 1-22.272 52.004572c19.419429 28.013714 40.009143 53.138286 61.147428 78.848 3.437714 3.986286 5.705143 9.142857 5.705143 14.299428s-1.718857 9.142857-5.156571 13.129143c-13.714286 18.285714-90.843429 102.290286-110.299429 102.290286a29.074286 29.074286 0 0 1-14.848-5.156571l-78.848-61.696a345.563429 345.563429 0 0 1-52.004571 21.723428c-3.986286 34.852571-7.424 72.009143-16.566858 106.276572a20.955429 20.955429 0 0 1-20.553142 16.018285h-126.866286c-10.276571 0-19.419429-7.424-20.553143-17.152l-16.018286-105.142857a336.237714 336.237714 0 0 1-51.419428-21.138286l-80.566857 61.147429c-3.986286 3.437714-9.142857 5.156571-14.299429 5.156571s-10.276571-2.304-14.299429-6.290285c-30.281143-27.428571-70.290286-62.866286-94.281142-96a22.198857 22.198857 0 0 1 0.585142-26.258286c19.419429-26.294857 40.557714-51.419429 60.013715-78.299429a304.420571 304.420571 0 0 1-23.442286-56.576l-104.557714-15.433142A20.845714 20.845714 0 0 1 73.143589 574.354286v-126.866286c0-8.557714 6.838857-18.870857 15.433142-20.553143l106.276572-16.018286c5.705143-18.285714 13.129143-35.437714 22.272-52.553142a1376.548571 1376.548571 0 0 0-61.147429-78.848c-3.437714-3.986286-5.705143-8.557714-5.705143-13.714286s2.304-9.142857 5.156572-13.129143c13.714286-18.870857 90.843429-102.290286 110.299428-102.290286 5.156571 0 10.276571 2.304 14.848 5.705143L359.424731 217.234286a345.563429 345.563429 0 0 1 52.004572-21.723429c3.986286-34.852571 7.424-72.009143 16.566857-106.276571a20.955429 20.955429 0 0 1 20.553143-16.018286h126.866286c10.276571 0 19.419429 7.424 20.553142 17.152l16.018286 105.142857c17.700571 5.705143 34.852571 12.580571 51.419429 21.138286l81.152-61.147429c3.437714-3.437714 8.557714-5.156571 13.714285-5.156571s10.276571 2.304 14.299429 5.705143c30.281143 28.013714 70.290286 63.414857 94.281143 97.133714a19.529143 19.529143 0 0 1 3.986286 12.580571c0 5.156571-1.718857 9.142857-4.571429 13.129143-19.419429 26.294857-40.557714 51.419429-60.013714 78.299429 9.728 18.285714 17.700571 37.156571 23.442285 55.990857l104.557715 16.018286a20.845714 20.845714 0 0 1 16.566857 20.553143z" fill="" p-id="11712"></path></svg>