<?xml version="1.0" standalone="no"?><!DOCTYPE svg PUBLIC "-//W3C//DTD SVG 1.1//EN" "http://www.w3.org/Graphics/SVG/1.1/DTD/svg11.dtd"><svg t="1563005070684" class="icon" viewBox="0 0 1024 1024" version="1.1" xmlns="http://www.w3.org/2000/svg" p-id="15255" xmlns:xlink="http://www.w3.org/1999/xlink" width="200" height="200"><defs><style type="text/css"></style></defs><path d="M512 64C229.2 64 0 250.2 0 480c0 99.2 42.8 190 114 261.4C89 842.2 5.4 932 4.4 933c-4.4 4.6-5.6 11.4-3 17.4S9.6 960 16 960c132.6 0 232-63.6 281.2-102.8 65.4 24.6 138 38.8 214.8 38.8 282.8 0 512-186.2 512-416S794.8 64 512 64zM256 544c-35.4 0-64-28.6-64-64s28.6-64 64-64 64 28.6 64 64-28.6 64-64 64z m256 0c-35.4 0-64-28.6-64-64s28.6-64 64-64 64 28.6 64 64-28.6 64-64 64z m256 0c-35.4 0-64-28.6-64-64s28.6-64 64-64 64 28.6 64 64-28.6 64-64 64z" fill="" p-id="15256"></path></svg>