<?xml version="1.0" standalone="no"?><!DOCTYPE svg PUBLIC "-//W3C//DTD SVG 1.1//EN" "http://www.w3.org/Graphics/SVG/1.1/DTD/svg11.dtd"><svg t="1563004600513" class="icon" viewBox="0 0 1024 1024" version="1.1" xmlns="http://www.w3.org/2000/svg" p-id="11844" xmlns:xlink="http://www.w3.org/1999/xlink" width="200" height="200"><defs><style type="text/css"></style></defs><path d="M365.714286 512c0-40.557714-32.585143-73.142857-73.142857-73.142857s-73.142857 32.585143-73.142858 73.142857 32.585143 73.142857 73.142858 73.142857 73.142857-32.585143 73.142857-73.142857z m219.428571 0c0-40.557714-32.585143-73.142857-73.142857-73.142857s-73.142857 32.585143-73.142857 73.142857 32.585143 73.142857 73.142857 73.142857 73.142857-32.585143 73.142857-73.142857z m219.428572 0c0-40.557714-32.585143-73.142857-73.142858-73.142857s-73.142857 32.585143-73.142857 73.142857 32.585143 73.142857 73.142857 73.142857 73.142857-32.585143 73.142858-73.142857z m219.428571 0c0 202.276571-229.156571 365.714286-512 365.714286-41.728 0-82.285714-3.437714-120.576-10.276572-65.133714 65.133714-150.272 109.714286-248.576 130.852572-15.433143 2.852571-32 5.705143-49.152 7.424a18.761143 18.761143 0 0 1-20.004571-13.714286c-2.304-9.142857 4.571429-14.848 11.446857-21.138286 35.986286-33.718857 78.848-60.562286 93.696-181.138285C69.705143 722.870857-0.036571 623.433143-0.036571 512c0-202.276571 229.156571-365.714286 512-365.714286s512 163.437714 512 365.714286z" fill="" p-id="11845"></path></svg>