<?xml version="1.0" standalone="no"?><!DOCTYPE svg PUBLIC "-//W3C//DTD SVG 1.1//EN" "http://www.w3.org/Graphics/SVG/1.1/DTD/svg11.dtd"><svg t="1563004607923" class="icon" viewBox="0 0 1097 1024" version="1.1" xmlns="http://www.w3.org/2000/svg" p-id="11977" xmlns:xlink="http://www.w3.org/1999/xlink" width="214.2578125" height="200"><defs><style type="text/css"></style></defs><path d="M1005.714286 73.142857C1056 73.142857 1097.142857 114.285714 1097.142857 164.571429v694.857142c0 50.285714-41.142857 91.428571-91.428571 91.428572h-914.285715A91.684571 91.684571 0 0 1 0 859.428571v-694.857142C0 114.285714 41.142857 73.142857 91.428571 73.142857h914.285715z m-914.285715 73.142857c-9.728 0-18.285714 8.557714-18.285714 18.285715V292.571429h950.857143V164.571429c0-9.728-8.557714-18.285714-18.285714-18.285715h-914.285715z m914.285715 731.428572c9.728 0 18.285714-8.557714 18.285714-18.285715V512H73.142857v347.428571c0 9.728 8.557714 18.285714 18.285714 18.285715h914.285715zM146.285714 804.571429v-73.142858h146.285715v73.142858H146.285714z m219.428572 0v-73.142858h219.428571v73.142858h-219.428571z" fill="" p-id="11978"></path></svg>