<?xml version="1.0" standalone="no"?><!DOCTYPE svg PUBLIC "-//W3C//DTD SVG 1.1//EN" "http://www.w3.org/Graphics/SVG/1.1/DTD/svg11.dtd"><svg t="1563004614511" class="icon" viewBox="0 0 1024 1024" version="1.1" xmlns="http://www.w3.org/2000/svg" p-id="12110" xmlns:xlink="http://www.w3.org/1999/xlink" width="200" height="200"><defs><style type="text/css"></style></defs><path d="M219.428571 658.285714c0-40.557714-32.585143-73.142857-73.142857-73.142857s-73.142857 32.585143-73.142857 73.142857 32.585143 73.142857 73.142857 73.142857 73.142857-32.585143 73.142857-73.142857z m109.714286-256c0-40.557714-32.585143-73.142857-73.142857-73.142857s-73.142857 32.585143-73.142857 73.142857 32.585143 73.142857 73.142857 73.142857 73.142857-32.585143 73.142857-73.142857z m244.553143 274.870857l57.709714-218.294857a37.193143 37.193143 0 0 0-26.294857-44.580571 36.717714 36.717714 0 0 0-44.580571 26.294857l-57.709715 218.294857a109.385143 109.385143 0 0 0-97.133714 81.152 110.189714 110.189714 0 0 0 78.299429 134.290286 110.189714 110.189714 0 0 0 134.290285-78.299429 110.811429 110.811429 0 0 0-44.580571-118.857143zM950.857143 658.285714c0-40.557714-32.585143-73.142857-73.142857-73.142857s-73.142857 32.585143-73.142857 73.142857 32.585143 73.142857 73.142857 73.142857 73.142857-32.585143 73.142857-73.142857zM585.142857 292.571429c0-40.557714-32.585143-73.142857-73.142857-73.142858s-73.142857 32.585143-73.142857 73.142858 32.585143 73.142857 73.142857 73.142857 73.142857-32.585143 73.142857-73.142857z m256 109.714285c0-40.557714-32.585143-73.142857-73.142857-73.142857s-73.142857 32.585143-73.142857 73.142857 32.585143 73.142857 73.142857 73.142857 73.142857-32.585143 73.142857-73.142857z m182.857143 256c0 98.304-28.013714 193.133714-80.566857 276.004572a36.937143 36.937143 0 0 1-30.866286 16.566857H111.433143c-12.580571 0-23.990857-6.290286-30.866286-16.566857A511.890286 511.890286 0 0 1 0 658.285714C0 375.990857 229.705143 146.285714 512 146.285714s512 229.705143 512 512z" fill="" p-id="12111"></path></svg>