<?xml version="1.0" standalone="no"?><!DOCTYPE svg PUBLIC "-//W3C//DTD SVG 1.1//EN" "http://www.w3.org/Graphics/SVG/1.1/DTD/svg11.dtd"><svg t="1563004618197" class="icon" viewBox="0 0 1024 1024" version="1.1" xmlns="http://www.w3.org/2000/svg" p-id="12243" xmlns:xlink="http://www.w3.org/1999/xlink" width="200" height="200"><defs><style type="text/css"></style></defs><path d="M512 438.857143c171.995429 0 344.576-30.866286 438.857143-97.133714V438.857143c0 80.566857-196.571429 146.285714-438.857143 146.285714S73.142857 519.424 73.142857 438.857143V341.723429C167.424 408.027429 340.004571 438.857143 512 438.857143z m0 438.857143c171.995429 0 344.576-30.866286 438.857143-97.133715V877.714286c0 80.566857-196.571429 146.285714-438.857143 146.285714S73.142857 958.281143 73.142857 877.714286v-97.133715C167.424 846.884571 340.004571 877.714286 512 877.714286z m0-219.428572c171.995429 0 344.576-30.866286 438.857143-97.133714V658.285714c0 80.566857-196.571429 146.285714-438.857143 146.285715S73.142857 738.852571 73.142857 658.285714v-97.133714C167.424 627.456 340.004571 658.285714 512 658.285714z m0-658.285714c242.285714 0 438.857143 65.718857 438.857143 146.285714v73.142857c0 80.566857-196.571429 146.285714-438.857143 146.285715S73.142857 299.995429 73.142857 219.428571V146.285714c0-80.566857 196.571429-146.285714 438.857143-146.285714z" fill="" p-id="12244"></path></svg>