<?xml version="1.0" standalone="no"?><!DOCTYPE svg PUBLIC "-//W3C//DTD SVG 1.1//EN" "http://www.w3.org/Graphics/SVG/1.1/DTD/svg11.dtd"><svg t="1563004626652" class="icon" viewBox="0 0 1097 1024" version="1.1" xmlns="http://www.w3.org/2000/svg" p-id="12376" xmlns:xlink="http://www.w3.org/1999/xlink" width="214.2578125" height="200"><defs><style type="text/css"></style></defs><path d="M1024 566.857143v-475.428572c0-9.728-8.557714-18.285714-18.285714-18.285714h-914.285715c-9.728 0-18.285714 8.557714-18.285714 18.285714v475.428572c0 9.728 8.557714 18.285714 18.285714 18.285714h914.285715c9.728 0 18.285714-8.557714 18.285714-18.285714z m73.142857-475.428572v621.714286c0 50.285714-41.142857 91.428571-91.428571 91.428572H694.857143c0 48.566857 36.571429 89.709714 36.571428 109.714285s-16.566857 36.571429-36.571428 36.571429h-292.571429c-20.004571 0-36.571429-16.566857-36.571428-36.571429 0-21.138286 36.571429-60.013714 36.571428-109.714285H91.428571A91.684571 91.684571 0 0 1 0 713.142857v-621.714286C0 41.142857 41.142857 0 91.428571 0h914.285715C1056 0 1097.142857 41.142857 1097.142857 91.428571z" fill="" p-id="12377"></path></svg>