<?xml version="1.0" standalone="no"?><!DOCTYPE svg PUBLIC "-//W3C//DTD SVG 1.1//EN" "http://www.w3.org/Graphics/SVG/1.1/DTD/svg11.dtd"><svg t="1563004632667" class="icon" viewBox="0 0 1024 1024" version="1.1" xmlns="http://www.w3.org/2000/svg" p-id="12509" xmlns:xlink="http://www.w3.org/1999/xlink" width="200" height="200"><defs><style type="text/css"></style></defs><path d="M768 768c0-20.004571-16.566857-36.571429-36.571429-36.571429s-36.571429 16.566857-36.571428 36.571429 16.566857 36.571429 36.571428 36.571429 36.571429-16.566857 36.571429-36.571429z m146.285714 0c0-20.004571-16.566857-36.571429-36.571428-36.571429s-36.571429 16.566857-36.571429 36.571429 16.566857 36.571429 36.571429 36.571429 36.571429-16.566857 36.571428-36.571429z m73.142857-128v182.857143a54.857143 54.857143 0 0 1-54.857142 54.857143h-841.142858A54.857143 54.857143 0 0 1 36.571429 822.857143v-182.857143A54.857143 54.857143 0 0 1 91.428571 585.142857h265.728l77.129143 77.714286c21.138286 20.553143 48.566857 32 77.714286 32s56.576-11.446857 77.714286-32L667.428571 585.142857h265.142858a54.857143 54.857143 0 0 1 54.857142 54.857143z m-185.709714-325.156571a35.986286 35.986286 0 0 1-8.009143 40.009142l-256 256c-6.838857 7.424-16.566857 10.861714-25.709714 10.861715s-18.870857-3.437714-25.709714-10.861715l-256-256a35.986286 35.986286 0 0 1-8.009143-40.009142C227.986286 301.714286 241.152 292.571429 256 292.571429h146.285714V36.571429c0-20.004571 16.566857-36.571429 36.571429-36.571429h146.285714c20.004571 0 36.571429 16.566857 36.571429 36.571429v256h146.285714c14.848 0 28.013714 9.142857 33.718857 22.272z" fill="" p-id="12510"></path></svg>