<?xml version="1.0" standalone="no"?><!DOCTYPE svg PUBLIC "-//W3C//DTD SVG 1.1//EN" "http://www.w3.org/Graphics/SVG/1.1/DTD/svg11.dtd"><svg t="1563004644712" class="icon" viewBox="0 0 1024 1024" version="1.1" xmlns="http://www.w3.org/2000/svg" p-id="12642" xmlns:xlink="http://www.w3.org/1999/xlink" width="200" height="200"><defs><style type="text/css"></style></defs><path d="M1024 405.723429V859.428571c0 50.285714-41.142857 91.428571-91.428571 91.428572h-841.142858A91.684571 91.684571 0 0 1 0 859.428571V405.723429c17.152 18.870857 36.571429 35.437714 57.709714 49.700571 94.866286 64.585143 190.866286 129.133714 284.013715 197.156571 48.018286 35.437714 107.446857 78.848 169.728 78.848h1.133714c62.281143 0 121.709714-43.446857 169.728-78.848 93.147429-67.437714 189.147429-132.571429 284.562286-197.156571a339.309714 339.309714 0 0 0 57.161142-49.700571zM1024 237.714286c0 64-47.433143 121.709714-97.718857 156.562285-89.161143 61.696-178.870857 123.428571-267.446857 185.709715-37.156571 25.709714-99.986286 78.299429-146.285715 78.299428h-1.133714c-46.299429 0-109.129143-52.553143-146.285714-78.299428-88.576-62.281143-178.285714-124.013714-266.861714-185.709715-40.557714-27.428571-98.304-92.013714-98.304-144.018285 0-55.990857 30.281143-104.009143 91.428571-104.009143h841.142857c49.700571 0 91.428571 41.142857 91.428572 91.428571z" fill="" p-id="12643"></path></svg>