<?xml version="1.0" standalone="no"?><!DOCTYPE svg PUBLIC "-//W3C//DTD SVG 1.1//EN" "http://www.w3.org/Graphics/SVG/1.1/DTD/svg11.dtd"><svg t="1563004660061" class="icon" viewBox="0 0 1024 1024" version="1.1" xmlns="http://www.w3.org/2000/svg" p-id="12775" xmlns:xlink="http://www.w3.org/1999/xlink" width="200" height="200"><defs><style type="text/css"></style></defs><path d="M911.981714 272.018286c5.705143 5.705143 10.861714 12.580571 16.018286 20.553143H658.285714V22.857143a120.685714 120.685714 0 0 1 20.553143 16.018286zM640 365.714286H950.857143v603.428571a54.857143 54.857143 0 0 1-54.857143 54.857143h-768A54.857143 54.857143 0 0 1 73.142857 969.142857v-914.285714A54.857143 54.857143 0 0 1 128 0H585.142857v310.857143a54.857143 54.857143 0 0 0 54.857143 54.857143zM731.428571 786.285714v-36.571428c0-10.276571-8.009143-18.285714-18.285714-18.285715h-402.285714c-10.276571 0-18.285714 8.009143-18.285714 18.285715v36.571428c0 10.276571 8.009143 18.285714 18.285714 18.285715h402.285714c10.276571 0 18.285714-8.009143 18.285714-18.285715z m0-146.285714v-36.571429c0-10.276571-8.009143-18.285714-18.285714-18.285714h-402.285714c-10.276571 0-18.285714 8.009143-18.285714 18.285714v36.571429c0 10.276571 8.009143 18.285714 18.285714 18.285714h402.285714c10.276571 0 18.285714-8.009143 18.285714-18.285714z m0-146.285714v-36.571429c0-10.276571-8.009143-18.285714-18.285714-18.285714h-402.285714c-10.276571 0-18.285714 8.009143-18.285714 18.285714v36.571429c0 10.276571 8.009143 18.285714 18.285714 18.285714h402.285714c10.276571 0 18.285714-8.009143 18.285714-18.285714z" fill="" p-id="12776"></path></svg>