<?xml version="1.0" standalone="no"?><!DOCTYPE svg PUBLIC "-//W3C//DTD SVG 1.1//EN" "http://www.w3.org/Graphics/SVG/1.1/DTD/svg11.dtd"><svg t="1563004671114" class="icon" viewBox="0 0 1024 1024" version="1.1" xmlns="http://www.w3.org/2000/svg" p-id="13041" xmlns:xlink="http://www.w3.org/1999/xlink" width="200" height="200"><defs><style type="text/css"></style></defs><path d="M516.16384 1024c-220.562286 0-395.995429-129.133714-476.562286-313.709714C-50.693303 505.161143 21.31584 176.566857 181.900983 31.451429l-6.290286 160.585142c8.009143-10.276571 69.156571-13.129143 78.848 0 33.133714-63.414857 139.995429-110.848 225.718857-112.566857-32.585143 27.428571-107.995429 127.414857-101.705143 178.285715 41.728 13.129143 105.728 13.714286 139.446858 16.018285 10.276571 5.705143 8.557714 40.557714-11.995429 69.156572 0 0-26.843429 37.156571-99.437714 50.285714l8.557714 107.995429-79.433143-38.290286c-25.709714 65.133714 35.986286 122.843429 99.986286 112.018286 70.838857-11.995429 96-58.294857 145.700571-55.442286 49.152 2.852571 68.571429 30.281143 62.281143 55.990857 0 0-8.009143 30.866286-61.147428 25.709714-45.129143 71.424-105.142857 102.838857-202.276572 94.281143 147.419429 122.294857 346.294857 11.446857 396.580572-88.576 50.285714-99.437714 6.290286-247.442286-43.995429-289.133714 59.428571 25.709714 100.571429 52.004571 122.294857 109.714286 11.446857-128-47.433143-273.152-152.576-358.290286C900.16384 126.902857 1020.73984 280.064 1024.177554 524.617143s-216.576 499.419429-508.013714 499.419428z" fill="" p-id="13042"></path></svg>