<?xml version="1.0" standalone="no"?><!DOCTYPE svg PUBLIC "-//W3C//DTD SVG 1.1//EN" "http://www.w3.org/Graphics/SVG/1.1/DTD/svg11.dtd"><svg t="1563004957229" class="icon" viewBox="0 0 1097 1024" version="1.1" xmlns="http://www.w3.org/2000/svg" p-id="8334" xmlns:xlink="http://www.w3.org/1999/xlink" width="214.2578125" height="200"><defs><style type="text/css"></style></defs><path d="M512 512q0-60.571429-42.857143-103.428571t-103.428571-42.857143-103.428572 42.857143-42.857143 103.428571 42.857143 103.428571 103.428572 42.857143 103.428571-42.857143 42.857143-103.428571z m438.857143 292.571429q0-29.714286-21.714286-51.428572t-51.428571-21.714286-51.428572 21.714286-21.714285 51.428572q0 30.285714 21.428571 51.714285t51.714286 21.428572 51.714285-21.428572 21.428572-51.714285z m0-585.142858q0-29.714286-21.714286-51.428571t-51.428571-21.714286-51.428572 21.714286-21.714285 51.428571q0 30.285714 21.428571 51.714286T877.714286 292.571429t51.714285-21.428572T950.857143 219.428571z m-219.428572 240.571429v105.714286q0 5.714286-4 11.142857t-9.142857 6l-88.571428 13.714286q-6.285714 20-18.285715 43.428571 19.428571 27.428571 51.428572 65.714286 4 5.714286 4 11.428571 0 6.857143-4 10.857143-13.142857 17.142857-47.142857 51.142857T570.857143 813.142857q-6.285714 0-12-4l-65.714286-51.428571q-21.142857 10.857143-44 17.714285-6.285714 61.714286-13.142857 88.571429-4 13.714286-17.142857 13.714286H312.571429q-6.285714 0-11.428572-4.285715t-5.714286-10l-13.142857-87.428571q-19.428571-5.714286-42.857143-17.714286l-67.428571 50.857143q-4 4-11.428571 4-6.285714 0-12-4.571428-82.285714-76-82.285715-91.428572 0-5.142857 4-10.857143 5.714286-8 23.428572-30.285714t26.857143-34.857143q-13.142857-25.142857-20-46.857143l-86.857143-13.714285q-5.714286-0.571429-9.714286-5.428572t-4-11.142857V458.285714q0-5.714286 4-11.142857t9.142857-6l88.571429-13.714286q6.285714-20 18.285714-43.428571-19.428571-27.428571-51.428571-65.714286-4-6.285714-4-11.428571 0-6.857143 4-11.428572 12.571429-17.142857 46.857142-50.857142t45.142858-33.714286q6.285714 0 12 4l65.714285 51.428571q19.428571-10.285714 44-18.285714 6.285714-61.714286 13.142857-88 4-13.714286 17.142858-13.714286h106.285714q6.285714 0 11.428571 4.285715t5.714286 10l13.142857 87.428571q19.428571 5.714286 42.857143 17.714286l67.428571-50.857143q4.571429-4 11.428572-4 6.285714 0 12 4.571428 82.285714 76 82.285714 91.428572 0 5.142857-4 10.857143-6.857143 9.142857-24 30.857143t-25.714286 34.285714q13.142857 27.428571 19.428572 46.857143l86.857143 13.142857q5.714286 1.142857 9.714285 6t4 11.142857z m365.714286 304.571429v80q0 9.142857-85.142857 17.714285-6.857143 15.428571-17.142857 29.714286 29.142857 64.571429 29.142857 78.857143 0 2.285714-2.285714 4-69.714286 40.571429-70.857143 40.571428-4.571429 0-26.285714-26.857142t-29.714286-38.857143q-11.428571 1.142857-17.142857 1.142857t-17.142857-1.142857q-8 12-29.714286 38.857143t-26.285714 26.857142q-1.142857 0-70.857143-40.571428-2.285714-1.714286-2.285715-4 0-14.285714 29.142858-78.857143-10.285714-14.285714-17.142858-29.714286-85.142857-8.571429-85.142857-17.714285v-80q0-9.142857 85.142857-17.714286 7.428571-16.571429 17.142858-29.714286-29.142857-64.571429-29.142858-78.857143 0-2.285714 2.285715-4 2.285714-1.142857 20-11.428571t33.714285-19.428572 17.142858-9.142857q4.571429 0 26.285714 26.571429t29.714286 38.571428q11.428571-1.142857 17.142857-1.142857t17.142857 1.142857q29.142857-40.571429 52.571428-64l3.428572-1.142857q2.285714 0 70.857143 40 2.285714 1.714286 2.285714 4 0 14.285714-29.142857 78.857143 9.714286 13.142857 17.142857 29.714286 85.142857 8.571429 85.142857 17.714286z m0-585.142858v80q0 9.142857-85.142857 17.714286-6.857143 15.428571-17.142857 29.714286 29.142857 64.571429 29.142857 78.857143 0 2.285714-2.285714 4-69.714286 40.571429-70.857143 40.571428-4.571429 0-26.285714-26.857143t-29.714286-38.857142q-11.428571 1.142857-17.142857 1.142857t-17.142857-1.142857q-8 12-29.714286 38.857142t-26.285714 26.857143q-1.142857 0-70.857143-40.571428-2.285714-1.714286-2.285715-4 0-14.285714 29.142858-78.857143-10.285714-14.285714-17.142858-29.714286-85.142857-8.571429-85.142857-17.714286V179.428571q0-9.142857 85.142857-17.714285 7.428571-16.571429 17.142858-29.714286-29.142857-64.571429-29.142858-78.857143 0-2.285714 2.285715-4 2.285714-1.142857 20-11.428571t33.714285-19.428572 17.142858-9.142857q4.571429 0 26.285714 26.571429t29.714286 38.571428q11.428571-1.142857 17.142857-1.142857t17.142857 1.142857q29.142857-40.571429 52.571428-64l3.428572-1.142857q2.285714 0 70.857143 40 2.285714 1.714286 2.285714 4 0 14.285714-29.142857 78.857143 9.714286 13.142857 17.142857 29.714286 85.142857 8.571429 85.142857 17.714285z" p-id="8335"></path></svg>