<?xml version="1.0" standalone="no"?><!DOCTYPE svg PUBLIC "-//W3C//DTD SVG 1.1//EN" "http://www.w3.org/Graphics/SVG/1.1/DTD/svg11.dtd"><svg t="1563004695279" class="icon" viewBox="0 0 1024 1024" version="1.1" xmlns="http://www.w3.org/2000/svg" p-id="13307" xmlns:xlink="http://www.w3.org/1999/xlink" width="200" height="200"><defs><style type="text/css"></style></defs><path d="M512 73.142857c242.285714 0 438.857143 196.571429 438.857143 438.857143s-196.571429 438.857143-438.857143 438.857143S73.142857 754.285714 73.142857 512 269.714286 73.142857 512 73.142857z m156.562286 297.728c-4.571429 3.437714-7.424 9.728-13.129143 10.861714 2.852571-0.585143 5.705143-10.861714 7.424-13.129142 3.437714-3.986286 8.009143-6.290286 12.580571-8.557715 9.728-3.986286 19.419429-5.156571 29.696-6.838857 9.728-2.304 21.723429-2.304 29.147429 6.290286-1.718857-1.718857 11.995429-13.714286 13.714286-14.299429 5.156571-2.852571 13.714286-1.718857 17.152-6.838857 1.133714-1.718857 1.133714-12.580571 1.133714-12.580571-9.728 1.133714-13.129143-8.009143-13.714286-16.018286 0 0.585143-1.133714 2.304-3.437714 4.571429 0.585143-8.557714-10.276571-2.304-14.299429-3.437715-13.129143-3.437714-11.446857-12.580571-15.433143-22.272-2.304-5.156571-8.557714-6.838857-10.861714-11.995428-2.304-3.437714-3.437714-10.861714-8.557714-11.446857-3.437714-0.585143-9.728 11.995429-10.861714 11.446857-5.156571-2.852571-7.424 1.133714-11.446858 3.437714-3.437714 2.304-6.290286 1.133714-9.728 2.852571 10.276571-3.437714-4.571429-9.142857-9.728-8.009142 8.009143-2.304 3.986286-10.861714-0.585142-14.848h2.852571c-1.133714-5.156571-17.152-9.728-22.272-13.129143s-32.585143-9.142857-38.290286-5.705143c-6.838857 3.986286 1.718857 15.433143 1.718857 21.138286 0.585143 6.838857-6.838857 8.557714-6.838857 14.299428 0 9.728 18.285714 8.009143 13.714286 21.138286-2.852571 8.009143-13.714286 9.728-18.285714 16.018286-4.571429 5.705143 0.585143 16.018286 5.156571 20.004571 4.571429 3.437714-8.009143 9.142857-9.728 10.276571-9.728 4.571429-17.152-9.728-19.419428-18.285714-1.718857-6.290286-2.304-13.714286-9.142858-17.152-3.437714-1.133714-14.299429-2.852571-16.566857 0.585143-3.437714-8.557714-15.433143-11.995429-23.442285-14.848-11.446857-3.986286-21.138286-3.986286-33.133715-2.304 3.986286-0.585143-1.133714-18.285714-10.861714-15.433143 2.852571-5.705143 1.718857-11.995429 2.852571-17.700571a32.438857 32.438857 0 0 1 6.838858-13.129143c1.133714-2.304 13.714286-15.433143 9.728-16.018286 9.728 1.133714 20.553143 1.718857 28.562285-6.290286 5.156571-5.156571 7.424-13.714286 12.580572-19.419428 7.424-8.557714 16.566857 2.304 24.576 2.852571 11.446857 0.585143 10.861714-11.995429 4.571428-17.700571 7.424 0.585143 1.133714-13.129143-2.852571-14.848-5.156571-1.718857-24.576 3.437714-14.299429 7.424-2.304-1.133714-16.018286 27.428571-23.990857 13.129143-2.304-2.852571-3.437714-14.848-8.557714-15.433143-4.571429 0-7.424 5.156571-9.142857 8.557714 2.852571-7.424-16.018286-12.580571-20.004572-13.129143 8.557714-5.705143 1.718857-11.995429-4.571428-15.433143-4.571429-2.852571-18.870857-5.156571-22.857143-0.585142-10.861714 13.129143 11.446857 14.848 17.152 18.285714 1.718857 1.133714 8.557714 5.156571 4.571428 8.009143-3.437714 1.718857-13.714286 4.571429-14.848 6.838857-3.437714 5.156571 3.986286 10.861714-1.133714 16.018286-5.156571-5.156571-5.156571-13.714286-9.142857-19.419429 5.156571 6.290286-20.553143 2.852571-20.004571 2.852571-8.557714 0-22.272 5.705143-28.562286-2.852571-1.133714-2.304-1.133714-15.433143 2.304-12.580571-5.156571-3.986286-8.557714-8.009143-11.995429-10.276572a347.428571 347.428571 0 0 0-53.723428 23.442286 9.508571 9.508571 0 0 0 6.838857-0.585143c4.571429-1.718857 8.557714-4.571429 13.129143-6.838857 5.705143-2.304 17.700571-9.142857 23.990857-3.986286 0.585143-1.133714 2.304-2.304 2.852571-2.852571 3.986286 4.571429 8.009143 9.142857 11.446857 14.299428-4.571429-2.304-11.995429-1.133714-17.152-0.585143-3.986286 1.133714-10.861714 2.304-12.580571 6.838858 1.718857 2.852571 3.986286 7.424 2.852571 10.276571-7.424-5.156571-13.129143-13.714286-23.442285-14.848-4.571429 0-9.142857 0-12.580572 0.585143a371.2 371.2 0 0 0-134.290285 126.866286 16.164571 16.164571 0 0 0 6.838857 4.571428c5.705143 1.718857 0 18.285714 10.861714 9.728 3.437714 2.852571 3.986286 6.838857 1.718857 10.861714 0.585143-0.585143 23.442286 14.299429 25.161143 15.433143 3.986286 3.437714 10.276571 7.424 11.995429 11.995429 1.133714 3.986286-2.304 8.557714-5.705143 10.276571-0.585143-1.133714-9.142857-9.728-10.276572-7.424-1.718857 2.852571 0 18.285714 6.290286 17.700572-9.142857 0.585143-5.156571 35.986286-7.424 42.861714 0 0.585143 1.133714 0.585143 1.133714 0.585143-1.718857 6.838857 3.986286 33.718857 15.433143 30.866286-7.424 1.718857 13.129143 28.013714 16.018286 29.696 7.424 5.156571 16.018286 8.557714 21.138286 16.018285 5.705143 8.009143 5.705143 20.004571 13.714285 26.294857-2.304 6.838857 11.995429 14.848 11.446857 24.576-1.133714 0.585143-1.718857 0.585143-2.852571 1.133715 2.852571 8.009143 13.714286 8.009143 17.700571 15.433143 2.304 4.571429 0 15.433143 7.424 13.129142 1.133714-12.580571-7.424-25.161143-13.714285-35.437714-3.437714-5.705143-6.838857-10.861714-9.728-16.566857-2.852571-5.156571-3.437714-11.446857-5.705143-17.152 2.304 0.585143 14.848 5.156571 13.714286 6.838857-4.571429 11.446857 18.285714 31.414857 24.576 38.838857 1.718857 1.718857 14.848 18.870857 8.009142 18.870857 7.424 0 17.700571 11.446857 21.138286 17.152 5.156571 8.557714 3.986286 19.419429 7.424 28.562286 3.437714 11.446857 19.419429 16.566857 28.562286 21.723429 8.009143 3.986286 14.848 9.728 22.857143 12.580571 11.995429 4.571429 14.848 0.585143 25.161143-1.133714 14.848-2.304 16.566857 14.299429 28.562285 20.553143 7.424 3.986286 23.442286 9.728 31.414857 6.290285-3.437714 1.133714 11.995429 24.576 13.129143 26.294858 5.156571 6.838857 14.848 10.276571 20.553143 17.152a8.923429 8.923429 0 0 0 3.986286-5.156572c-2.304 6.290286 8.557714 18.285714 14.299428 17.152 6.290286-1.133714 8.009143-13.714286 8.009143-18.285714-11.446857 5.705143-21.723429 1.133714-28.013714-10.276572-1.133714-2.852571-10.276571-18.870857-2.304-18.870857 10.861714 0 3.437714-8.557714 2.304-16.566857s-9.142857-13.129143-13.129143-20.004571c-3.437714 6.838857-14.848 5.156571-18.285714-0.585143 0 1.718857-1.718857 4.571429-1.718857 6.838857-2.852571 0-5.705143 0.585143-8.557715-0.585143 1.133714-6.838857 1.718857-15.433143 3.437715-22.857143 2.852571-10.276571 21.723429-30.281143-2.852572-29.147428-8.557714 0.585143-11.995429 3.986286-14.848 11.446857-2.852571 6.838857-1.718857 13.129143-9.728 16.566857-5.156571 2.304-22.272 1.133714-27.428571-1.718857-10.861714-6.290286-18.285714-26.294857-18.285714-37.705143-0.585143-15.433143 7.424-29.147429 0-43.446857 3.437714-2.852571 6.838857-8.557714 10.861714-11.446857 3.437714-2.304 7.424 1.718857 9.142857-5.156572-1.718857-1.133714-3.986286-3.437714-4.571429-3.437714 8.557714 3.986286 24.576-5.705143 32 0 4.571429 3.437714 9.728 4.571429 12.580572-1.133714 0.585143-1.718857-3.986286-8.557714-1.718857-13.129143 1.718857 9.728 8.009143 11.446857 16.566857 5.156571 3.437714 3.437714 12.580571 2.304 18.870857 5.705143 6.290286 3.986286 7.424 10.276571 14.848 1.718857 4.571429 6.838857 5.156571 6.838857 6.838857 13.714286 1.718857 6.290286 5.156571 22.272 10.861714 25.161143 11.995429 7.424 9.142857-12.580571 8.009143-19.419429-0.585143-0.585143-0.585143-19.419429-1.133714-19.419428-18.285714-3.986286-11.446857-18.285714-1.133714-28.013715 1.718857-1.133714 14.848-5.705143 20.553143-10.276571 5.156571-4.571429 11.446857-12.580571 8.557714-20.004571 2.852571 0 5.156571-2.304 6.290286-5.156572-1.718857-0.585143-8.557714-6.290286-9.728-5.705143 3.986286-2.304 3.437714-5.705143 1.133714-9.142857 5.705143-3.437714 2.852571-9.728 8.557714-11.995428 6.290286 8.557714 18.870857-1.133714 12.580572-8.009143 5.705143-8.009143 18.870857-3.986286 22.272-11.446857 8.557714 2.304 2.304-8.557714 6.838857-14.848 3.986286-5.156571 10.861714-5.156571 16.018285-8.009143 0 0.585143 14.299429-8.009143 9.728-8.557715 9.728 1.133714 29.147429-9.142857 14.299429-17.700571 2.304-5.156571-5.156571-7.424-10.276571-8.557714 3.986286-1.133714 9.142857 1.133714 12.580571-1.133715 7.424-5.156571 2.304-7.424-3.986286-9.142857-8.009143-2.304-18.285714 2.852571-24.576 6.838857z m-93.147429 501.138286a362.496 362.496 0 0 0 200.557714-107.995429c-3.437714-3.437714-9.728-2.304-14.299428-4.571428-4.571429-1.718857-8.009143-3.437714-13.714286-4.571429 1.133714-11.446857-11.446857-15.433143-19.419428-21.138286-7.424-5.705143-11.995429-11.995429-22.857143-9.728-1.133714 0.585143-12.580571 4.571429-10.276572 6.838858-7.424-6.290286-10.861714-9.728-20.553143-12.580572-9.142857-2.852571-15.433143-14.299429-24.576-3.986286-4.571429 4.571429-2.304 11.446857-4.571428 16.018286-7.424-6.290286 6.838857-13.714286 1.133714-20.553143-6.838857-8.009143-18.870857 5.156571-24.576 8.557715-3.437714 2.852571-7.424 3.986286-9.728 7.424-2.852571 3.986286-3.986286 9.142857-6.290286 13.129142-1.718857-4.571429-11.446857-3.437714-11.995428-6.838857 2.304 13.714286 2.304 28.013714 5.156571 41.728 1.718857 8.009143 0 21.138286-6.838857 27.428572s-15.433143 13.129143-16.566857 22.857143c-1.133714 6.838857 0.585143 13.129143 6.838857 14.848 0.585143 8.557714-9.142857 14.848-8.557714 23.990857 0 0.585143 0.585143 6.290286 1.133714 9.142857z" fill="" p-id="13308"></path></svg>