<?xml version="1.0" standalone="no"?><!DOCTYPE svg PUBLIC "-//W3C//DTD SVG 1.1//EN" "http://www.w3.org/Graphics/SVG/1.1/DTD/svg11.dtd"><svg t="1563004689767" class="icon" viewBox="0 0 1097 1024" version="1.1" xmlns="http://www.w3.org/2000/svg" p-id="13174" xmlns:xlink="http://www.w3.org/1999/xlink" width="214.2578125" height="200"><defs><style type="text/css"></style></defs><path d="M338.874514 512a202.313143 202.313143 0 0 0-151.442285 73.142857H110.851657C53.690514 585.142857 0.003657 557.714286 0.003657 494.299429 0.003657 448-1.7152 292.571429 70.842514 292.571429c11.995429 0 71.424 48.566857 148.553143 48.566857 26.294857 0 51.419429-4.571429 75.995429-13.129143A278.820571 278.820571 0 0 0 292.538514 365.714286c0 52.004571 16.566857 103.424 46.299429 146.285714zM950.8608 875.995429C950.8608 968.557714 889.713371 1024 798.2848 1024H298.865371C207.4368 1024 146.289371 968.557714 146.289371 875.995429 146.289371 746.861714 176.570514 548.571429 343.994514 548.571429c19.419429 0 90.294857 79.433143 204.580572 79.433142S733.736229 548.571429 753.155657 548.571429C920.579657 548.571429 950.8608 746.861714 950.8608 875.995429zM365.717943 146.285714c0 80.566857-65.718857 146.285714-146.285714 146.285715S73.146514 226.852571 73.146514 146.285714s65.718857-146.285714 146.285715-146.285714 146.285714 65.718857 146.285714 146.285714z m402.285714 219.428572c0 121.161143-98.304 219.428571-219.428571 219.428571s-219.428571-98.304-219.428572-219.428571 98.304-219.428571 219.428572-219.428572 219.428571 98.304 219.428571 219.428572z m329.142857 128.585143C1097.146514 557.714286 1043.423086 585.142857 986.298514 585.142857h-76.580571a202.313143 202.313143 0 0 0-151.442286-73.142857A258.413714 258.413714 0 0 0 804.575086 365.714286a277.942857 277.942857 0 0 0-2.852572-37.705143A228.864 228.864 0 0 0 877.717943 341.138286C954.847086 341.138286 1014.275657 292.571429 1026.271086 292.571429c72.557714 0 70.838857 155.428571 70.838857 201.728zM1024.003657 146.285714c0 80.566857-65.718857 146.285714-146.285714 146.285715s-146.285714-65.718857-146.285714-146.285715 65.718857-146.285714 146.285714-146.285714 146.285714 65.718857 146.285714 146.285714z" fill="" p-id="13175"></path></svg>