<?xml version="1.0" standalone="no"?><!DOCTYPE svg PUBLIC "-//W3C//DTD SVG 1.1//EN" "http://www.w3.org/Graphics/SVG/1.1/DTD/svg11.dtd"><svg t="1563004709753" class="icon" viewBox="0 0 1024 1024" version="1.1" xmlns="http://www.w3.org/2000/svg" p-id="13573" xmlns:xlink="http://www.w3.org/1999/xlink" width="200" height="200"><defs><style type="text/css"></style></defs><path d="M731.428571 585.142857h174.299429c-6.838857 7.424-11.446857 11.446857-12.580571 12.580572l-355.986286 342.857142c-6.838857 6.838857-16.018286 10.276571-25.161143 10.276572s-18.285714-3.437714-25.161143-10.276572l-356.571428-343.990857A80.384 80.384 0 0 1 118.272 585.142857H329.142857c16.566857 0 31.414857-11.446857 35.437714-27.428571l40.009143-160.585143 108.580572 381.147428a36.681143 36.681143 0 1 0 70.290285 0l83.419429-277.138285 32 64c6.290286 11.995429 18.870857 20.004571 32.585143 20.004571z m292.571429-244.589714c0 65.718857-28.562286 125.696-58.843429 171.446857h-210.870857l-63.414857-126.281143a36.827429 36.827429 0 0 0-35.437714-20.004571c-15.433143 1.718857-28.013714 11.446857-32 26.294857l-73.728 245.723428-112.018286-392.009142A37.046857 37.046857 0 0 0 401.700571 219.428571a36.059429 36.059429 0 0 0-34.852571 27.428572L300.544 512H58.843429C28.562286 466.285714 0 406.272 0 340.553143c0-167.424 102.290286-267.446857 273.152-267.446857 99.986286 0 193.718857 78.848 238.848 123.428571 45.129143-44.580571 138.861714-123.428571 238.848-123.428571C921.709714 73.106286 1024 173.092571 1024 340.553143z" fill="" p-id="13574"></path></svg>