<?xml version="1.0" standalone="no"?><!DOCTYPE svg PUBLIC "-//W3C//DTD SVG 1.1//EN" "http://www.w3.org/Graphics/SVG/1.1/DTD/svg11.dtd"><svg t="1563004720388" class="icon" viewBox="0 0 1097 1024" version="1.1" xmlns="http://www.w3.org/2000/svg" p-id="13706" xmlns:xlink="http://www.w3.org/1999/xlink" width="214.2578125" height="200"><defs><style type="text/css"></style></defs><path d="M365.714286 329.142857a109.750857 109.750857 0 0 1-219.428572 0 109.750857 109.750857 0 0 1 219.428572 0z m585.142857 219.428572v256H146.285714v-109.714286l182.857143-182.857143 91.428572 91.428571 292.571428-292.571428z m54.857143-402.285715h-914.285715c-9.728 0-18.285714 8.557714-18.285714 18.285715v694.857142c0 9.728 8.557714 18.285714 18.285714 18.285715h914.285715c9.728 0 18.285714-8.557714 18.285714-18.285715v-694.857142c0-9.728-8.557714-18.285714-18.285714-18.285715z m91.428571 18.285715v694.857142c0 50.285714-41.142857 91.428571-91.428571 91.428572h-914.285715A91.684571 91.684571 0 0 1 0 859.428571v-694.857142C0 114.285714 41.142857 73.142857 91.428571 73.142857h914.285715C1056 73.142857 1097.142857 114.285714 1097.142857 164.571429z" fill="" p-id="13707"></path></svg>