<?xml version="1.0" standalone="no"?><!DOCTYPE svg PUBLIC "-//W3C//DTD SVG 1.1//EN" "http://www.w3.org/Graphics/SVG/1.1/DTD/svg11.dtd"><svg t="1563004728215" class="icon" viewBox="0 0 1024 1024" version="1.1" xmlns="http://www.w3.org/2000/svg" p-id="13839" xmlns:xlink="http://www.w3.org/1999/xlink" width="200" height="200"><defs><style type="text/css"></style></defs><path d="M1024 535.442286c0 20.004571-1.133714 40.009143-3.986286 59.428571H362.313143c0 113.700571 99.986286 195.986286 209.700571 195.986286 74.276571 0 145.700571-36.571429 183.990857-101.156572h241.700572a460.946286 460.946286 0 0 1-433.700572 306.285715c-70.290286 0-140.580571-16.566857-203.446857-47.433143-64 32.585143-153.709714 66.304-225.133714 66.304C39.424 1014.857143 0 956.013714 0 864.585143c0-53.138286 11.446857-106.276571 25.709714-157.147429 9.142857-33.133714 45.714286-100.571429 62.281143-130.852571 70.290286-127.414857 162.852571-249.709714 271.433143-346.294857-87.442286 37.705143-182.272 132.571429-244.004571 202.276571a460.251429 460.251429 0 0 1 448.585142-357.156571c8.557714 0 17.152 0 25.709715 0.585143C660.553143 43.410286 759.442286 9.142857 837.156571 9.142857c92.562286 0 171.995429 35.437714 171.995429 139.995429 0 54.857143-21.138286 114.285714-42.861714 163.437714A460.982857 460.982857 0 0 1 1024 535.442286z m-40.009143-365.714286c0-64-45.714286-103.424-108.580571-103.424-48.018286 0-102.290286 19.419429-145.152 40.009143a464.091429 464.091429 0 0 1 224.585143 186.843428c14.299429-37.705143 29.147429-83.419429 29.147428-123.428571zM73.142857 876.580571c0 66.304 39.424 102.290286 104.557714 102.290286 50.870857 0 107.446857-22.857143 151.990858-47.433143a460.324571 460.324571 0 0 1-200.557715-244.553143C102.838857 741.741714 73.142857 814.884571 73.142857 876.580571z m288-407.442285H777.142857c-3.986286-110.299429-101.156571-189.696-208.018286-189.696-107.446857 0-203.995429 79.433143-208.018285 189.696z" fill="" p-id="13840"></path></svg>