<?xml version="1.0" standalone="no"?><!DOCTYPE svg PUBLIC "-//W3C//DTD SVG 1.1//EN" "http://www.w3.org/Graphics/SVG/1.1/DTD/svg11.dtd"><svg t="1563004736616" class="icon" viewBox="0 0 1024 1024" version="1.1" xmlns="http://www.w3.org/2000/svg" p-id="13972" xmlns:xlink="http://www.w3.org/1999/xlink" width="200" height="200"><defs><style type="text/css"></style></defs><path d="M731.428571 402.285714c0-20.004571-16.566857-36.571429-36.571428-36.571428-202.276571 0-332.580571 84.553143-464.566857 230.290285C223.451429 603.428571 219.428571 611.437714 219.428571 621.714286c0 20.004571 16.566857 36.571429 36.571429 36.571428 10.276571 0 18.285714-3.986286 25.709714-10.861714 28.013714-25.161143 53.138286-52.553143 80.566857-78.299429 103.424-93.147429 192-130.304 332.580572-130.304 20.004571 0 36.571429-16.566857 36.571428-36.571428z m292.571429-113.152c0 36.571429-3.986286 73.728-11.446857 110.299429-36.571429 177.700571-150.857143 293.156571-309.723429 372.004571-77.129143 38.838857-163.437714 61.696-250.294857 61.696-54.857143 0-111.433143-9.142857-163.437714-26.843428-27.428571-9.142857-82.285714-45.129143-105.142857-45.129143-28.562286 0-62.866286 116.553143-112.566857 116.553143-35.986286 0-46.848-17.700571-62.281143-43.995429-5.156571-9.728-9.142857-13.129143-9.142857-25.161143 0-59.428571 113.152-105.728 113.152-138.861714 0-5.156571-14.848-35.437714-17.152-46.848a341.942857 341.942857 0 0 1-5.156572-59.428571c0-181.723429 144.566857-311.442286 306.870857-365.129143 117.138286-38.838857 366.299429 6.290286 445.696-69.156572C874.788571 99.986286 890.221714 73.142857 938.24 73.142857c64.585143 0 85.723429 167.424 85.723429 215.990857z" fill="" p-id="13973"></path></svg>