<?xml version="1.0" standalone="no"?><!DOCTYPE svg PUBLIC "-//W3C//DTD SVG 1.1//EN" "http://www.w3.org/Graphics/SVG/1.1/DTD/svg11.dtd"><svg t="1563004771317" class="icon" viewBox="0 0 1024 1024" version="1.1" xmlns="http://www.w3.org/2000/svg" p-id="14105" xmlns:xlink="http://www.w3.org/1999/xlink" width="200" height="200"><defs><style type="text/css"></style></defs><path d="M1007.993341 6.362951c11.994529 8.557073 17.699244 22.27033 15.431986 36.568686l-146.274744 877.648462a36.641823 36.641823 0 0 1-35.983587 30.278872c-4.571086 0-9.142171-1.133629-13.713257-2.852357l-258.833159-105.720071-138.266201 168.545073a35.508194 35.508194 0 0 1-28.011614 13.128158 32.692405 32.692405 0 0 1-12.579628-2.303827 36.45898 36.45898 0 0 1-23.989058-34.301427v-199.409044l493.67726-605.102046L248.644578 711.370647 22.942649 618.815303a36.202999 36.202999 0 0 1-22.855429-31.412501 36.934373 36.934373 0 0 1 18.284343-33.716328l950.785834-548.530289a35.325351 35.325351 0 0 1 18.284343-5.156185c7.423443 0 14.846886 2.303827 20.551601 6.289814z" fill="" p-id="14106"></path></svg>