<?xml version="1.0" standalone="no"?><!DOCTYPE svg PUBLIC "-//W3C//DTD SVG 1.1//EN" "http://www.w3.org/Graphics/SVG/1.1/DTD/svg11.dtd"><svg t="1563004778518" class="icon" viewBox="0 0 1024 1024" version="1.1" xmlns="http://www.w3.org/2000/svg" p-id="14238" xmlns:xlink="http://www.w3.org/1999/xlink" width="200" height="200"><defs><style type="text/css"></style></defs><path d="M303.981714 633.161143l86.857143 86.857143-29.696 29.696H329.142857V694.857143H274.285714v-32z m236.580572-222.866286c4.571429 3.986286 3.437714 11.995429-1.718857 17.152l-166.290286 166.290286c-5.156571 5.156571-13.129143 6.290286-17.152 1.718857-4.571429-3.986286-3.437714-11.995429 1.718857-17.152l166.290286-166.290286c5.156571-5.156571 13.129143-6.290286 17.152-1.718857zM384 804.571429l310.857143-310.857143L530.285714 329.142857 219.428571 640V804.571429h164.571429z m347.428571-347.428572l52.553143-52.553143a55.552 55.552 0 0 0 0-77.714285l-86.857143-86.857143a55.552 55.552 0 0 0-77.714285 0L566.857143 292.571429z m219.428572-219.428571v548.571428c0 90.843429-73.728 164.571429-164.571429 164.571429h-548.571428A164.644571 164.644571 0 0 1 73.142857 786.285714v-548.571428C73.142857 146.870857 146.870857 73.142857 237.714286 73.142857h548.571428C877.129143 73.142857 950.857143 146.870857 950.857143 237.714286z" fill="" p-id="14239"></path></svg>