<?xml version="1.0" standalone="no"?><!DOCTYPE svg PUBLIC "-//W3C//DTD SVG 1.1//EN" "http://www.w3.org/Graphics/SVG/1.1/DTD/svg11.dtd"><svg t="1563004987189" class="icon" viewBox="0 0 1097 1024" version="1.1" xmlns="http://www.w3.org/2000/svg" p-id="8600" xmlns:xlink="http://www.w3.org/1999/xlink" width="214.2578125" height="200"><defs><style type="text/css"></style></defs><path d="M338.857143 512q-92.571429 2.857143-151.428572 73.142857H110.857143q-46.857143 0-78.857143-23.142857T0 494.285714q0-201.714286 70.857143-201.714285 3.428571 0 24.857143 12t55.714285 24.285714T219.428571 341.142857q38.285714 0 76-13.142857-2.857143 21.142857-2.857142 37.714286 0 79.428571 46.285714 146.285714z m612 364q0 68.571429-41.714286 108.285714t-110.857143 39.714286H298.857143q-69.142857 0-110.857143-39.714286T146.285714 876q0-30.285714 2-59.142857t8-62.285714T171.428571 692.571429t24.571429-55.714286 35.428571-46.285714 48.857143-30.571429T344 548.571429q5.714286 0 24.571429 12.285714t41.714285 27.428571 61.142857 27.428572 77.142858 12.285714 77.142857-12.285714 61.142857-27.428572 41.714286-27.428571 24.571428-12.285714q34.857143 0 63.714286 11.428571t48.857143 30.571429 35.428571 46.285714 24.571429 55.714286 15.142857 62 8 62.285714 2 59.142857zM365.714286 146.285714q0 60.571429-42.857143 103.428572t-103.428572 42.857143-103.428571-42.857143-42.857143-103.428572 42.857143-103.428571T219.428571 0t103.428572 42.857143 42.857143 103.428571z m402.285714 219.428572q0 90.857143-64.285714 155.142857T548.571429 585.142857 393.428571 520.857143 329.142857 365.714286t64.285714-155.142857T548.571429 146.285714t155.142857 64.285715T768 365.714286z m329.142857 128.571428q0 44.571429-32 67.714286t-78.857143 23.142857h-76.571428q-58.857143-70.285714-151.428572-73.142857 46.285714-66.857143 46.285715-146.285714 0-16.571429-2.857143-37.714286 37.714286 13.142857 76 13.142857 33.714286 0 68-12.285714t55.714285-24.285714 24.857143-12q70.857143 0 70.857143 201.714285z m-73.142857-348q0 60.571429-42.857143 103.428572t-103.428571 42.857143-103.428572-42.857143-42.857143-103.428572 42.857143-103.428571 103.428572-42.857143 103.428571 42.857143 42.857143 103.428571z" p-id="8601"></path></svg>