<?xml version="1.0" standalone="no"?><!DOCTYPE svg PUBLIC "-//W3C//DTD SVG 1.1//EN" "http://www.w3.org/Graphics/SVG/1.1/DTD/svg11.dtd"><svg t="1563004851422" class="icon" viewBox="0 0 1170 1024" version="1.1" xmlns="http://www.w3.org/2000/svg" p-id="14770" xmlns:xlink="http://www.w3.org/1999/xlink" width="228.515625" height="200"><defs><style type="text/css"></style></defs><path d="M331.446857 263.424c0-31.414857-20.553143-52.004571-52.004571-52.004571-30.866286 0-62.281143 20.553143-62.281143 52.004571 0 30.866286 31.414857 51.419429 62.281143 51.419429 31.414857 0 52.004571-20.553143 52.004571-51.419429z m424.557714 289.718857c0-20.553143-20.553143-41.142857-52.004571-41.142857-20.553143 0-41.142857 20.553143-41.142857 41.142857 0 21.138286 20.553143 41.728 41.142857 41.728 31.414857 0 52.004571-20.553143 52.004571-41.728z m-134.875428-289.718857c0-31.414857-20.553143-52.004571-51.419429-52.004571-31.414857 0-62.281143 20.553143-62.281143 52.004571 0 30.866286 30.866286 51.419429 62.281143 51.419429 30.866286 0 51.419429-20.553143 51.419429-51.419429z m362.861714 289.718857c0-20.553143-21.138286-41.142857-52.004571-41.142857-20.553143 0-41.142857 20.553143-41.142857 41.142857 0 21.138286 20.553143 41.728 41.142857 41.728 30.866286 0 52.004571-20.553143 52.004571-41.728zM832 326.290286a306.285714 306.285714 0 0 0-40.009143-2.304c-196.571429 0-352 146.870857-352 327.424 0 30.281143 4.571429 59.428571 13.129143 86.857143-13.129143 1.133714-25.709714 1.718857-38.838857 1.718857-52.004571 0-93.147429-10.276571-145.152-20.553143l-144.566857 72.557714 41.142857-124.562286C62.281143 594.870857 0 501.138286 0 387.437714 0 190.281143 186.294857 35.437714 414.281143 35.437714c203.446857 0 382.281143 124.013714 417.718857 290.852572zM1170.285714 646.838857c0 93.147429-61.696 176.018286-145.152 238.299429l31.414857 103.424-113.700571-62.281143c-41.728 10.276571-83.419429 21.138286-124.562286 21.138286-197.156571 0-352-134.838857-352-300.580572s154.843429-300.580571 352-300.580571c186.294857 0 352 134.838857 352 300.580571z" fill="" p-id="14771"></path></svg>