<?xml version="1.0" standalone="no"?><!DOCTYPE svg PUBLIC "-//W3C//DTD SVG 1.1//EN" "http://www.w3.org/Graphics/SVG/1.1/DTD/svg11.dtd"><svg t="1563004909282" class="icon" viewBox="0 0 1122 1024" version="1.1" xmlns="http://www.w3.org/2000/svg" p-id="8201" xmlns:xlink="http://www.w3.org/1999/xlink" width="219.140625" height="200"><defs><style type="text/css"></style></defs><path d="M561.142857 870.285714q-11.428571 0-53.142857-42t-41.714286-53.428571q0-18.285714 35.714286-30.857143t59.142857-12.571429 59.142857 12.571429 35.714286 30.857143q0 11.428571-41.714286 53.428571t-53.142857 42z m154.285714-154.857143q-1.142857 0-22.857142-14.285714t-58-28.571428-73.428572-14.285715-73.428571 14.285715-57.714286 28.571428-23.142857 14.285714q-10.285714 0-53.428572-42.857142t-43.142857-53.142858q0-7.428571 5.714286-13.142857 44.571429-44 112-69.142857t133.142857-25.142857 133.142857 25.142857 112 69.142857q5.714286 5.714286 5.714286 13.142857 0 10.285714-43.142857 53.142858t-53.428572 42.857142z m156-155.428571q-6.285714 0-13.142857-4.571429-77.714286-60-144-88.285714T561.142857 438.857143q-48.571429 0-97.428571 12.571428t-85.142857 30.285715T313.714286 517.142857t-45.142857 30.285714-17.714286 12.571429q-9.714286 0-52.571429-42.857143t-42.857143-53.142857q0-6.857143 5.714286-12.571429 75.428571-75.428571 182.857143-117.142857t217.142857-41.714285 217.142857 41.714285 182.857143 117.142857q5.714286 5.714286 5.714286 12.571429 0 10.285714-42.857143 53.142857t-52.571429 42.857143z m154.857143-154.857143q-6.285714 0-12.571428-5.142857-102.285714-89.714286-212.285715-135.142857T561.142857 219.428571t-240.285714 45.428572T108.571429 400q-6.285714 5.142857-12.571429 5.142857-9.714286 0-52.857143-42.857143T0 309.142857q0-7.428571 5.714286-13.142857 106.857143-106.285714 254.285714-164.571429t301.142857-58.285714 301.142857 58.285714 254.285715 164.571429q5.714286 5.714286 5.714285 13.142857 0 10.285714-43.142857 53.142857t-52.857143 42.857143z" p-id="8202"></path></svg>